# xmcd
#
# Track frame offsets:
#  150
#  17357
#  30937
#  49302
#  69700
#  91060
#  107147
#  121075
#  137832
#  157472
#  176487
#  193012
#  207279
#  220607
#  240184
#  256809
#  275272
#  298034
#  314232
#  344112
#
# Disc length: 4656 seconds
#
# Revision: 0
# Processed by: cddbd v1.5.1PL2 Copyright (c) Steve Scherf et al.
# Submitted via: Collectorz.com_Music_Collector 6.11
#
DISCID=29122e14
DTITLE=Johnny Winter - Still Alive And Well/Nothin' But The Blues
DYEAR=1973
DGENRE=Blues
TTITLE0=Rock Me Baby
TTITLE1=Can't You Feel It
TTITLE2=Cheap Tequila
TTITLE3=All Tore Down
TTITLE4=Rock and Roll
TTITLE5=Silver Train
TTITLE6=Ain't Nothing To Me
TTITLE7=Still Alive and Well
TTITLE8=Too Much Seconal
TTITLE9=Let It Bleed
TTITLE10=Tired Of Tryin'
TTITLE11=TV Mama
TTITLE12=Sweet Love And Evil Women
TTITLE13=Everybody's Blues
TTITLE14=Drinkin' Blues
TTITLE15=Mad Blues
TTITLE16=It Was Rainin'
TTITLE17=Bladie Mae
TTITLE18=Walking Thru The Park
TTITLE19=Data track
EXTD=
EXTT0=
EXTT1=
EXTT2=
EXTT3=
EXTT4=
EXTT5=
EXTT6=
EXTT7=
EXTT8=
EXTT9=
EXTT10=
EXTT11=
EXTT12=
EXTT13=
EXTT14=
EXTT15=
EXTT16=
EXTT17=
EXTT18=
EXTT19=
PLAYORDER=
